<svg width="222" height="58" viewBox="0 0 222 58" fill="none" xmlns="http://www.w3.org/2000/svg">
<path d="M128.843 14.1688C128.843 15.2412 128.932 16.4761 129.005 16.801H126.852C126.763 16.5492 126.69 15.9805 126.666 15.3468C126.251 16.1023 125.35 17.0773 123.124 17.0773C120.362 17.0773 119.184 15.2737 119.184 13.4945C119.184 10.8784 121.247 9.68416 124.7 9.68416H126.625V8.74174C126.625 7.75058 126.3 6.58068 124.253 6.58068C122.417 6.58068 122.092 7.47435 121.897 8.36803H119.728C119.883 6.67005 120.939 4.85021 124.326 4.85833C127.226 4.86646 128.826 6.04448 128.826 8.71737V14.1606L128.843 14.1688ZM126.649 11.1872H124.87C122.62 11.1872 121.475 11.8208 121.475 13.3645C121.475 14.5019 122.247 15.3549 123.627 15.3549C126.292 15.3549 126.641 13.5513 126.641 11.5446V11.1872H126.649Z" fill="black"/>
<path d="M134.902 10.5778C135.861 9.42417 138.225 6.89752 139.809 5.13455H142.465L138.135 9.65165L142.944 16.7929H140.337L136.608 11.0897L134.902 12.7389V16.801H132.652V0H134.902V10.5778Z" fill="black"/>
<path d="M154.057 14.1688C154.057 15.2412 154.146 16.4761 154.219 16.801H152.067C151.977 16.5492 151.904 15.9805 151.88 15.3468C151.466 16.1023 150.564 17.0773 148.338 17.0773C145.576 17.0773 144.398 15.2737 144.398 13.4945C144.398 10.8784 146.462 9.68416 149.914 9.68416H151.839V8.74174C151.839 7.75058 151.514 6.58068 149.467 6.58068C147.631 6.58068 147.307 7.47435 147.112 8.36803H144.943C145.097 6.67005 146.153 4.85021 149.54 4.85833C152.44 4.86646 154.041 6.04448 154.041 8.71737V14.1606L154.057 14.1688ZM151.864 11.1872H150.085C147.835 11.1872 146.689 11.8208 146.689 13.3645C146.689 14.5019 147.461 15.3549 148.842 15.3549C151.506 15.3549 151.856 13.5513 151.856 11.5446V11.1872H151.864Z" fill="black"/>
<path d="M167.745 0V13.5188C167.745 14.6075 167.745 15.6799 167.769 16.801H165.608C165.551 16.4842 165.511 15.6474 165.494 15.233C164.918 16.3867 163.772 17.0773 161.896 17.0773C158.907 17.0773 157.054 14.6562 157.054 11.0897C157.054 7.52309 159.045 4.86645 162.286 4.86645C164.276 4.86645 165.194 5.6545 165.494 6.28007V0H167.745ZM159.386 11.0165C159.386 13.73 160.637 15.1924 162.424 15.1924C165.056 15.1924 165.584 13.2101 165.584 10.8216C165.584 8.43301 165.088 6.73503 162.57 6.73503C160.58 6.73503 159.394 8.30302 159.394 11.0165H159.386Z" fill="black"/>
<path d="M172.992 11.3984C173.008 13.5919 174.105 15.2249 176.014 15.2249C177.76 15.2249 178.313 14.3556 178.678 13.527H180.936C180.49 15.0056 179.231 17.0691 175.949 17.0691C172.245 17.0691 170.718 14.1119 170.718 11.0978C170.718 7.59622 172.488 4.85834 176.071 4.85834C179.88 4.85834 181.14 7.8562 181.14 10.4235C181.14 10.7891 181.14 11.0734 181.107 11.3984H172.992ZM178.865 9.87102C178.841 8.05931 177.955 6.59693 176.046 6.59693C174.137 6.59693 173.244 7.95369 173.057 9.87102H178.865Z" fill="black"/>
<path d="M184.121 8.14867C184.121 7.14126 184.121 6.09322 184.096 5.14268H186.257C186.29 5.4839 186.347 6.29633 186.347 6.85691C186.891 5.84949 187.89 4.86646 189.71 4.86646C191.367 4.86646 192.455 5.71138 192.894 6.89753C193.527 5.817 194.616 4.86646 196.59 4.86646C198.564 4.86646 200.27 6.01198 200.27 9.13983V16.801H198.06V9.40793C198.06 8.11617 197.597 6.75941 195.867 6.75941C194.137 6.75941 193.3 8.08367 193.3 10.0985V16.7929H191.099V9.48917C191.099 8.04305 190.701 6.78379 188.954 6.78379C187.208 6.78379 186.347 8.15679 186.347 10.3422V16.8092H184.121V8.14867Z" fill="black"/>
<path d="M204.071 0H206.321V2.58352H204.071V0ZM204.071 5.13455H206.321V16.801H204.071V5.13455Z" fill="black"/>
<path d="M218.855 14.1688C218.855 15.2412 218.945 16.4761 219.018 16.801H216.865C216.776 16.5492 216.703 15.9805 216.678 15.3468C216.264 16.1023 215.363 17.0773 213.137 17.0773C210.375 17.0773 209.197 15.2737 209.197 13.4945C209.197 10.8784 211.26 9.68416 214.713 9.68416H216.638V8.74174C216.638 7.75058 216.313 6.58068 214.266 6.58068C212.43 6.58068 212.105 7.47435 211.91 8.36803H209.741C209.896 6.67005 210.952 4.85021 214.339 4.85833C217.239 4.86646 218.839 6.04448 218.839 8.71737V14.1606L218.855 14.1688ZM216.662 11.1872H214.883C212.633 11.1872 211.488 11.8208 211.488 13.3645C211.488 14.5019 212.259 15.3549 213.64 15.3549C216.305 15.3549 216.654 13.5513 216.654 11.5446V11.1872H216.662Z" fill="black"/>
<path fill-rule="evenodd" clip-rule="evenodd" d="M1.00007 13.0801C1.00007 12.0239 1.13004 11.4309 2.44599 11.0328C6.92186 9.65164 7.24679 9.65164 7.57984 9.65164C8.23782 9.65164 8.43277 9.91162 8.43277 10.9028V27.062C8.43277 27.062 10.6017 25.2178 15.0125 25.2178C23.0382 25.2178 28.5701 29.3043 28.5701 41.117C28.5701 53.5147 23.3063 57.0162 14.3546 57.0162C10.3417 57.0162 4.15186 55.7651 0.991943 54.5789V13.0801M13.9565 31.2216C10.7316 31.2216 8.42465 32.7409 8.42465 32.7409V50.2812C8.42465 50.2812 11.1215 51.0693 13.7535 51.0693C17.9694 51.0693 20.8612 50.4112 20.8612 41.1089C20.8612 33.1308 18.9523 31.2135 13.9484 31.2135L13.9565 31.2216Z" fill="black"/>
<path fill-rule="evenodd" clip-rule="evenodd" d="M40.8684 44.2774C40.8684 47.5758 41.6564 51.0693 46.5303 51.0693C50.0801 51.0693 51.8591 49.615 52.9801 47.7708V27.7201C52.9801 26.4039 53.5731 25.8109 54.759 25.8109H58.6419C59.9579 25.8109 60.4859 26.4039 60.4859 27.7201V48.2989C60.4859 50.3462 61.3388 51.1343 62.7929 51.1343C63.1909 51.1343 63.7758 51.0693 63.9788 51.0693C64.7668 51.0693 65.2298 51.4024 65.3598 52.2554L65.7578 55.1558C65.7578 55.9438 64.9049 57 61.087 57C58.1951 57 55.8882 55.6839 55.1652 52.8485C54.0442 54.3677 50.4944 57 45.2955 57C36.8068 57 33.387 52.7754 33.387 45.9835V27.7119C33.387 26.3958 33.915 25.8027 35.1659 25.8027H39.0488C40.2998 25.8027 40.8928 26.3958 40.8928 27.7119V44.2692" fill="black"/>
<path fill-rule="evenodd" clip-rule="evenodd" d="M95.0501 54.5627C91.3622 55.8788 85.3104 57.0081 81.6225 57.0081C72.6708 57.0081 67.4719 53.5147 67.4719 41.1089C67.4719 28.7031 72.9957 25.2097 81.0295 25.2097C85.3754 25.2097 87.5443 27.0539 87.5443 27.0539V12.0889C87.5443 10.7728 88.1373 10.2447 89.3883 10.2447C90.1112 10.2447 93.2062 10.2447 93.2062 10.2447C94.5221 10.2447 95.0501 10.7728 95.0501 12.0889V54.5627ZM87.5443 32.7327C87.5443 32.7327 85.2454 31.2135 82.0124 31.2135C77.0167 31.2135 75.1727 33.1227 75.1727 41.1089C75.1727 50.4112 77.9996 51.0693 82.2805 51.0693C84.8474 51.0693 87.5443 50.2812 87.5443 50.2812V32.7409V32.7327Z" fill="black"/>
<path fill-rule="evenodd" clip-rule="evenodd" d="M104.887 21.5862C102.255 21.5862 100.411 19.612 100.411 17.1666C100.411 14.4612 102.255 12.747 104.887 12.747C107.129 12.747 109.363 14.6562 109.363 17.1666C109.363 19.677 107.259 21.5862 104.887 21.5862ZM102.913 25.8109H106.796C108.047 25.8109 108.575 26.4689 108.575 27.7201V54.5627C108.575 55.8139 108.047 56.4069 106.796 56.4069H102.913C101.662 56.4069 101.134 55.8139 101.134 54.5627V27.7201C101.134 26.4689 101.662 25.8109 102.913 25.8109Z" fill="black"/>
<path fill-rule="evenodd" clip-rule="evenodd" d="M127.624 31.2135C125.585 31.2135 123.611 31.9366 122.092 32.7977V54.5627C122.092 55.8138 121.564 56.4069 120.313 56.4069H116.43C115.114 56.4069 114.651 55.8138 114.651 54.5627V29.4993C117.218 27.387 122.352 25.2097 128.079 25.2097C132.49 25.2097 135.78 26.1358 137.754 27.5819C140.191 26.3308 143.018 25.2097 146.575 25.2097C157.566 25.2097 159.337 30.0924 159.337 35.04V54.5627C159.337 55.8138 158.809 56.4069 157.566 56.4069H153.683C152.432 56.4069 151.839 55.8138 151.839 54.5627V36.7543C151.839 33.4558 150.718 31.2135 146.112 31.2135C143.944 31.2135 142.1 31.8716 140.516 32.7327C140.516 32.7327 140.711 33.6589 140.711 35.9012V54.5627C140.711 55.8138 140.183 56.4069 138.932 56.4069H135.049C133.798 56.4069 133.27 55.8138 133.27 54.5627V36.2262C133.075 33.2608 131.954 31.2135 127.608 31.2135" fill="black"/>
<path fill-rule="evenodd" clip-rule="evenodd" d="M164.203 41.1089C164.203 30.2223 169.467 25.2097 178.093 25.2097C187.305 25.2097 191.253 30.4823 191.253 39.9146C191.253 42.945 190.66 44.1392 188.621 44.1392H171.903C171.903 48.4939 173.488 51.0611 180.132 51.0611C185.201 51.0611 187.175 49.745 188.158 49.745C189.076 49.745 190.197 53.0435 190.197 53.7015C190.197 55.7488 184.08 57 179.929 57C168.012 57 164.195 51.7923 164.195 41.1008M183.877 37.9973C183.877 33.5127 181.838 31.2054 178.15 31.2054C174.332 31.2054 171.895 33.0496 171.895 38.7935H183.869V38.0054L183.877 37.9973Z" fill="black"/>
<path fill-rule="evenodd" clip-rule="evenodd" d="M194.746 26.7939C194.746 26.0708 194.941 25.8027 195.794 25.8027H200.798C201.716 25.8027 202.049 25.9327 202.707 27.0539L207.247 34.642L211.788 27.0539C212.511 25.8677 212.714 25.8027 213.957 25.8027H218.701C219.489 25.8027 219.757 26.0708 219.757 26.7939C219.757 26.9889 219.627 27.322 219.359 27.7201L211.195 40.1827L220.74 54.7577C220.935 55.0258 221.008 55.3508 221.008 55.4808C221.008 56.1388 220.74 56.4069 219.952 56.4069H214.818C213.957 56.4069 213.697 56.2119 213.039 55.1558L207.247 46.3166L201.456 55.1558C200.733 56.2769 200.538 56.4069 199.547 56.4069H194.543C193.755 56.4069 193.487 56.1469 193.487 55.4808C193.487 55.2127 193.617 54.8877 193.812 54.5546L203.162 40.1746L195.063 27.7119C194.868 27.3139 194.738 26.9889 194.738 26.7858" fill="black"/>
</svg>
