<svg width="1444" height="22" viewBox="0 0 1444 22" fill="none" xmlns="http://www.w3.org/2000/svg">
<path d="M91.122 1H1V21H91.122V1Z" fill="white"/>
<path d="M181.244 1H91.1221V21H181.244V1Z" fill="black"/>
<path d="M271.374 1H181.252V21H271.374V1Z" fill="white"/>
<path d="M361.496 1H271.374V21H361.496V1Z" fill="black"/>
<path d="M451.618 1H361.496V21H451.618V1Z" fill="white"/>
<path d="M541.748 1H451.626V21H541.748V1Z" fill="black"/>
<path d="M631.87 1H541.748V21H631.87V1Z" fill="white"/>
<path d="M721.992 1H631.87V21H721.992V1Z" fill="black"/>
<rect x="1" y="1" width="721" height="20" stroke="black" stroke-width="2"/>
<path d="M812.122 1H722V21H812.122V1Z" fill="white"/>
<path d="M902.244 1H812.122V21H902.244V1Z" fill="black"/>
<path d="M992.374 1H902.252V21H992.374V1Z" fill="white"/>
<path d="M1082.5 1H992.374V21H1082.5V1Z" fill="black"/>
<path d="M1172.62 1H1082.5V21H1172.62V1Z" fill="white"/>
<path d="M1262.75 1H1172.63V21H1262.75V1Z" fill="black"/>
<path d="M1352.87 1H1262.75V21H1352.87V1Z" fill="white"/>
<path d="M1442.99 1H1352.87V21H1442.99V1Z" fill="black"/>
<rect x="722" y="1" width="721" height="20" stroke="black" stroke-width="2"/>
</svg>
