<svg width="97" height="98" viewBox="0 0 97 98" fill="none" xmlns="http://www.w3.org/2000/svg">
<path d="M96.7009 1.70538V96.7995" stroke="white" stroke-width="0.54" stroke-miterlimit="10"/>
<path d="M96.7009 1.70538V96.7995" stroke="white" stroke-width="0.54" stroke-miterlimit="10"/>
<path d="M1 1.70538V96.7995" stroke="white" stroke-width="0.54" stroke-miterlimit="10"/>
<path d="M10.4983 1.70538V96.7995" stroke="white" stroke-width="0.27" stroke-miterlimit="10"/>
<path d="M20.009 1.70538V96.7995" stroke="white" stroke-width="0.27" stroke-miterlimit="10"/>
<path d="M29.5073 1.70538V96.7995" stroke="white" stroke-width="0.27" stroke-miterlimit="10"/>
<path d="M39.0181 1.70538V96.7995" stroke="white" stroke-width="0.27" stroke-miterlimit="10"/>
<path d="M48.5166 1.70538V96.7995" stroke="white" stroke-width="0.27" stroke-miterlimit="10"/>
<path d="M48.5166 1.70538V96.7995" stroke="white" stroke-width="0.27" stroke-miterlimit="10"/>
<path d="M58.0271 1.70538V96.7995" stroke="white" stroke-width="0.27" stroke-miterlimit="10"/>
<path d="M67.5256 1.70538V96.7995" stroke="white" stroke-width="0.27" stroke-miterlimit="10"/>
<path d="M77.0364 1.70538V96.7995" stroke="white" stroke-width="0.27" stroke-miterlimit="10"/>
<path d="M86.5347 1.70538V96.7995" stroke="white" stroke-width="0.27" stroke-miterlimit="10"/>
<path d="M96.033 1.70538V96.7995" stroke="white" stroke-width="0.54" stroke-miterlimit="10"/>
<path d="M1 1.70538V96.7995" stroke="white" stroke-width="0.54" stroke-miterlimit="10"/>
<path d="M10.4983 1.70538V96.7995" stroke="white" stroke-width="0.27" stroke-miterlimit="10"/>
<path d="M20.009 1.70538V96.7995" stroke="white" stroke-width="0.27" stroke-miterlimit="10"/>
<path d="M29.5073 1.70538V96.7995" stroke="white" stroke-width="0.27" stroke-miterlimit="10"/>
<path d="M39.0181 1.70538V96.7995" stroke="white" stroke-width="0.27" stroke-miterlimit="10"/>
<path d="M48.5166 1.70538V96.7995" stroke="white" stroke-width="0.27" stroke-miterlimit="10"/>
<path d="M48.5166 1.70538V96.7995" stroke="white" stroke-width="0.32" stroke-miterlimit="10"/>
<path d="M58.0271 1.70538V96.7995" stroke="white" stroke-width="0.27" stroke-miterlimit="10"/>
<path d="M67.5256 1.70538V96.7995" stroke="white" stroke-width="0.27" stroke-miterlimit="10"/>
<path d="M77.0364 1.70538V96.7995" stroke="white" stroke-width="0.27" stroke-miterlimit="10"/>
<path d="M86.5347 1.70538V96.7995" stroke="white" stroke-width="0.27" stroke-miterlimit="10"/>
<path d="M96.033 1.70538V96.7995" stroke="white" stroke-width="0.32" stroke-miterlimit="10"/>
<path d="M1 96.7995H96.033" stroke="white" stroke-width="0.81" stroke-miterlimit="10"/>
<path d="M1 87.295H96.033" stroke="white" stroke-width="0.27" stroke-miterlimit="10"/>
<path d="M1 77.7782H96.033" stroke="white" stroke-width="0.27" stroke-miterlimit="10"/>
<path d="M1 68.2737H96.033" stroke="white" stroke-width="0.27" stroke-miterlimit="10"/>
<path d="M1 58.7569H96.033" stroke="white" stroke-width="0.27" stroke-miterlimit="10"/>
<path d="M1 49.2524H96.033" stroke="white" stroke-width="0.27" stroke-miterlimit="10"/>
<path d="M1 49.2524H96.033" stroke="white" stroke-width="0.32" stroke-miterlimit="10"/>
<path d="M1 39.748H96.033" stroke="white" stroke-width="0.27" stroke-miterlimit="10"/>
<path d="M1 30.2311H96.033" stroke="white" stroke-width="0.27" stroke-miterlimit="10"/>
<path d="M1 20.7267H96.033" stroke="white" stroke-width="0.27" stroke-miterlimit="10"/>
<path d="M1 11.2098H96.033" stroke="white" stroke-width="0.27" stroke-miterlimit="10"/>
<path d="M1 1.70538H96.033" stroke="white" stroke-width="0.32" stroke-miterlimit="10"/>
<path d="M1 1H96.033" stroke="white" stroke-width="0.81" stroke-miterlimit="10"/>
</svg>
