<svg width="577" height="20" viewBox="0 0 577 20" fill="none" xmlns="http://www.w3.org/2000/svg">
<mask id="mask0_381_927" style="mask-type:luminance" maskUnits="userSpaceOnUse" x="0" y="0" width="294" height="20">
<path d="M3.05176e-05 19.81L293.796 19.81V-1.90735e-06L3.05176e-05 -1.90735e-06V19.81Z" fill="white"/>
</mask>
<g mask="url(#mask0_381_927)">
<path d="M287.874 -10.8638L286.298 -10.8612C286.097 -10.8609 285.936 -10.695 285.936 -10.4907L285.978 16.9793C285.978 17.1837 286.141 17.349 286.341 17.3487L287.917 17.3462C288.117 17.3459 288.279 17.18 288.279 16.9756L288.237 -10.4943C288.236 -10.6987 288.074 -10.8641 287.874 -10.8638Z" fill="#141917"/>
<path d="M280.775 -17.6924L279.199 -17.6898C278.999 -17.6895 278.837 -17.5236 278.837 -17.3193L278.88 10.1507C278.88 10.3551 279.042 10.5204 279.243 10.5201L280.819 10.5176C281.019 10.5173 281.181 10.3514 281.18 10.147L281.138 -17.3229C281.138 -17.5273 280.975 -17.6927 280.775 -17.6924Z" fill="#141917"/>
<path d="M273.678 -17.691L272.101 -17.6884C271.901 -17.6881 271.74 -17.5222 271.74 -17.3179L271.782 10.1521C271.782 10.3564 271.945 10.5218 272.145 10.5215L273.721 10.519C273.921 10.5187 274.083 10.3528 274.083 10.1484L274.04 -17.3216C274.04 -17.5259 273.878 -17.6913 273.678 -17.691Z" fill="#141917"/>
<path d="M266.58 -17.6696L265.004 -17.6671C264.804 -17.6667 264.642 -17.5008 264.642 -17.2965L264.684 10.1735C264.685 10.3778 264.847 10.5432 265.047 10.5429L266.623 10.5404C266.823 10.5401 266.985 10.3741 266.985 10.1698L266.943 -17.3002C266.942 -17.5045 266.78 -17.6699 266.58 -17.6696Z" fill="#141917"/>
<path d="M259.492 -17.6682L257.916 -17.6657C257.716 -17.6654 257.554 -17.4994 257.554 -17.2951L257.597 10.1749C257.597 10.3792 257.759 10.5446 257.959 10.5443L259.535 10.5418C259.736 10.5414 259.897 10.3755 259.897 10.1712L259.855 -17.2988C259.855 -17.5031 259.692 -17.6685 259.492 -17.6682Z" fill="#141917"/>
<path d="M252.405 -10.8269L250.829 -10.8243C250.629 -10.824 250.467 -10.6581 250.467 -10.4537L250.509 17.0162C250.51 17.2206 250.672 17.386 250.872 17.3856L252.448 17.3831C252.648 17.3828 252.81 17.2169 252.81 17.0125L252.768 -10.4574C252.767 -10.6618 252.605 -10.8272 252.405 -10.8269Z" fill="#141917"/>
<path d="M245.307 -17.6555L243.73 -17.6529C243.53 -17.6526 243.368 -17.4867 243.369 -17.2823L243.411 10.1876C243.411 10.392 243.574 10.5574 243.774 10.557L245.35 10.5545C245.55 10.5542 245.712 10.3883 245.712 10.1839L245.669 -17.286C245.669 -17.4904 245.507 -17.6558 245.307 -17.6555Z" fill="#141917"/>
<path d="M238.209 -17.6441L236.633 -17.6415C236.433 -17.6412 236.271 -17.4753 236.271 -17.271L236.313 10.199C236.314 10.4033 236.476 10.5687 236.676 10.5684L238.252 10.5659C238.452 10.5656 238.614 10.3997 238.614 10.1953L238.572 -17.2747C238.571 -17.479 238.409 -17.6444 238.209 -17.6441Z" fill="#141917"/>
<path d="M231.121 -17.6327L229.545 -17.6302C229.345 -17.6299 229.183 -17.4639 229.183 -17.2596L229.225 10.2104C229.226 10.4147 229.388 10.5801 229.588 10.5798L231.164 10.5773C231.364 10.5769 231.526 10.411 231.526 10.2067L231.484 -17.2633C231.484 -17.4676 231.321 -17.633 231.121 -17.6327Z" fill="#141917"/>
<path d="M224.023 -17.6213L222.447 -17.6188C222.247 -17.6185 222.085 -17.4525 222.085 -17.2482L222.128 10.2218C222.128 10.4261 222.29 10.5915 222.49 10.5912L224.067 10.5887C224.267 10.5883 224.428 10.4224 224.428 10.2181L224.386 -17.2519C224.386 -17.4562 224.223 -17.6216 224.023 -17.6213Z" fill="#141917"/>
<path d="M216.946 -10.78L215.37 -10.7774C215.169 -10.7771 215.008 -10.6112 215.008 -10.4069L215.05 17.0631C215.05 17.2675 215.213 17.4328 215.413 17.4325L216.989 17.43C217.189 17.4297 217.351 17.2638 217.351 17.0594L217.309 -10.4105C217.308 -10.6149 217.146 -10.7803 216.946 -10.78Z" fill="#141917"/>
<path d="M209.838 -17.6085L208.261 -17.606C208.061 -17.6057 207.899 -17.4398 207.9 -17.2354L207.942 10.2345C207.942 10.4389 208.105 10.6043 208.305 10.6039L209.881 10.6014C210.081 10.6011 210.243 10.4352 210.243 10.2308L210.2 -17.2391C210.2 -17.4435 210.038 -17.6089 209.838 -17.6085Z" fill="#141917"/>
<path d="M202.75 -17.5972L201.174 -17.5947C200.973 -17.5943 200.812 -17.4284 200.812 -17.2241L200.854 10.2459C200.854 10.4502 201.017 10.6156 201.217 10.6153L202.793 10.6128C202.993 10.6125 203.155 10.4465 203.155 10.2422L203.112 -17.2278C203.112 -17.4321 202.95 -17.5975 202.75 -17.5972Z" fill="#141917"/>
<path d="M195.652 -17.5958L194.076 -17.5933C193.876 -17.5929 193.714 -17.427 193.714 -17.2227L193.756 10.2473C193.757 10.4516 193.919 10.617 194.119 10.6167L195.695 10.6142C195.895 10.6139 196.057 10.4479 196.057 10.2436L196.015 -17.2264C196.015 -17.4307 195.852 -17.5961 195.652 -17.5958Z" fill="#141917"/>
<path d="M188.564 -17.5844L186.988 -17.5819C186.788 -17.5816 186.626 -17.4156 186.626 -17.2113L186.669 10.2587C186.669 10.463 186.831 10.6284 187.031 10.6281L188.608 10.6256C188.808 10.6252 188.969 10.4593 188.969 10.255L188.927 -17.215C188.927 -17.4193 188.764 -17.5847 188.564 -17.5844Z" fill="#141917"/>
<path d="M181.477 -10.7431L179.901 -10.7405C179.701 -10.7402 179.539 -10.5743 179.539 -10.3699L179.581 17.1C179.582 17.3044 179.744 17.4698 179.944 17.4694L181.52 17.4669C181.72 17.4666 181.882 17.3007 181.882 17.0963L181.84 -10.3736C181.839 -10.578 181.677 -10.7434 181.477 -10.7431Z" fill="#141917"/>
<path d="M174.369 -17.5616L172.793 -17.5591C172.593 -17.5588 172.431 -17.3929 172.431 -17.1885L172.473 10.2814C172.474 10.4858 172.636 10.6512 172.836 10.6509L174.412 10.6483C174.612 10.648 174.774 10.4821 174.774 10.2777L174.732 -17.1922C174.731 -17.3966 174.569 -17.562 174.369 -17.5616Z" fill="#141917"/>
<path d="M167.281 -17.5603L165.705 -17.5577C165.505 -17.5574 165.343 -17.3915 165.343 -17.1872L165.385 10.2828C165.386 10.4872 165.548 10.6525 165.748 10.6522L167.324 10.6497C167.524 10.6494 167.686 10.4835 167.686 10.2791L167.644 -17.1909C167.643 -17.3952 167.481 -17.5606 167.281 -17.5603Z" fill="#141917"/>
<path d="M160.183 -17.5489L158.607 -17.5463C158.407 -17.546 158.245 -17.3801 158.245 -17.1758L158.287 10.2942C158.288 10.4985 158.45 10.6639 158.65 10.6636L160.226 10.6611C160.426 10.6608 160.588 10.4949 160.588 10.2905L160.546 -17.1795C160.546 -17.3838 160.383 -17.5492 160.183 -17.5489Z" fill="#141917"/>
<path d="M153.095 -17.5375L151.519 -17.535C151.319 -17.5347 151.157 -17.3687 151.157 -17.1644L151.2 10.3056C151.2 10.5099 151.362 10.6753 151.562 10.675L153.139 10.6725C153.339 10.6721 153.5 10.5062 153.5 10.3019L153.458 -17.1681C153.458 -17.3724 153.295 -17.5378 153.095 -17.5375Z" fill="#141917"/>
<path d="M146.008 -10.6961L144.432 -10.6936C144.232 -10.6933 144.07 -10.5274 144.07 -10.323L144.112 17.1469C144.113 17.3513 144.275 17.5167 144.475 17.5164L146.051 17.5138C146.251 17.5135 146.413 17.3476 146.413 17.1433L146.371 -10.3267C146.37 -10.5311 146.208 -10.6965 146.008 -10.6961Z" fill="#141917"/>
<path d="M138.91 -17.5147L137.333 -17.5122C137.133 -17.5119 136.971 -17.346 136.972 -17.1416L137.014 10.3283C137.014 10.5327 137.177 10.6981 137.377 10.6978L138.953 10.6952C139.153 10.6949 139.315 10.529 139.315 10.3246L139.272 -17.1453C139.272 -17.3497 139.11 -17.5151 138.91 -17.5147Z" fill="#141917"/>
<path d="M131.812 -17.5133L130.236 -17.5108C130.036 -17.5105 129.874 -17.3446 129.874 -17.1402L129.916 10.3297C129.917 10.5341 130.079 10.6995 130.279 10.6991L131.855 10.6966C132.055 10.6963 132.217 10.5304 132.217 10.326L132.175 -17.1439C132.174 -17.3483 132.012 -17.5137 131.812 -17.5133Z" fill="#141917"/>
<path d="M124.724 -17.512L123.148 -17.5094C122.948 -17.5091 122.786 -17.3432 122.786 -17.1389L122.828 10.3311C122.829 10.5354 122.991 10.7008 123.191 10.7005L124.767 10.698C124.967 10.6977 125.129 10.5318 125.129 10.3274L125.087 -17.1426C125.087 -17.3469 124.924 -17.5123 124.724 -17.512Z" fill="#141917"/>
<path d="M117.626 -17.5006L116.05 -17.4981C115.85 -17.4977 115.688 -17.3318 115.689 -17.1275L115.731 10.3425C115.731 10.5468 115.894 10.7122 116.094 10.7119L117.67 10.7094C117.87 10.7091 118.032 10.5431 118.031 10.3388L117.989 -17.1312C117.989 -17.3355 117.826 -17.5009 117.626 -17.5006Z" fill="#141917"/>
<path d="M110.549 -10.6592L108.973 -10.6567C108.773 -10.6564 108.611 -10.4905 108.611 -10.2861L108.653 17.1838C108.654 17.3882 108.816 17.5536 109.016 17.5533L110.592 17.5507C110.792 17.5504 110.954 17.3845 110.954 17.1801L110.912 -10.2898C110.911 -10.4942 110.749 -10.6596 110.549 -10.6592Z" fill="#141917"/>
<path d="M103.441 -17.4778L101.865 -17.4753C101.665 -17.475 101.503 -17.3091 101.503 -17.1047L101.545 10.3652C101.546 10.5696 101.708 10.735 101.908 10.7347L103.484 10.7321C103.684 10.7318 103.846 10.5659 103.846 10.3616L103.804 -17.1084C103.803 -17.3128 103.641 -17.4781 103.441 -17.4778Z" fill="#141917"/>
<path d="M96.353 -17.4665L94.7768 -17.4639C94.5767 -17.4636 94.4148 -17.2977 94.4151 -17.0933L94.4574 10.3766C94.4577 10.581 94.6201 10.7464 94.8202 10.746L96.3963 10.7435C96.5964 10.7432 96.7583 10.5773 96.758 10.3729L96.7158 -17.097C96.7154 -17.3014 96.553 -17.4668 96.353 -17.4665Z" fill="#141917"/>
<path d="M89.2553 -17.4651L87.6791 -17.4625C87.4791 -17.4622 87.3171 -17.2963 87.3175 -17.092L87.3597 10.378C87.36 10.5824 87.5225 10.7477 87.7225 10.7474L89.2987 10.7449C89.4987 10.7446 89.6607 10.5787 89.6603 10.3743L89.6181 -17.0957C89.6178 -17.3 89.4554 -17.4654 89.2553 -17.4651Z" fill="#141917"/>
<path d="M82.1674 -17.4537L80.5912 -17.4512C80.3912 -17.4509 80.2293 -17.2849 80.2296 -17.0806L80.2718 10.3894C80.2721 10.5937 80.4346 10.7591 80.6346 10.7588L82.2108 10.7563C82.4108 10.7559 82.5728 10.59 82.5724 10.3857L82.5302 -17.0843C82.5299 -17.2886 82.3675 -17.454 82.1674 -17.4537Z" fill="#141917"/>
<path d="M75.08 -10.6123L73.5038 -10.6098C73.3038 -10.6095 73.1419 -10.4436 73.1422 -10.2392L73.1844 17.2307C73.1847 17.4351 73.3472 17.6005 73.5472 17.6002L75.1234 17.5976C75.3234 17.5973 75.4854 17.4314 75.485 17.2271L75.4428 -10.2429C75.4425 -10.4473 75.2801 -10.6127 75.08 -10.6123Z" fill="#141917"/>
<path d="M67.9719 -17.4309L66.3957 -17.4284C66.1956 -17.4281 66.0337 -17.2622 66.034 -17.0578L66.0763 10.4122C66.0766 10.6165 66.239 10.7819 66.4391 10.7816L68.0152 10.779C68.2153 10.7787 68.3772 10.6128 68.3769 10.4085L68.3346 -17.0615C68.3343 -17.2658 68.1719 -17.4312 67.9719 -17.4309Z" fill="#141917"/>
<path d="M60.884 -17.4295L59.3078 -17.427C59.1077 -17.4267 58.9458 -17.2608 58.9461 -17.0564L58.9884 10.4135C58.9887 10.6179 59.1511 10.7833 59.3512 10.7829L60.9273 10.7804C61.1274 10.7801 61.2893 10.6142 61.289 10.4098L61.2468 -17.0601C61.2464 -17.2645 61.084 -17.4299 60.884 -17.4295Z" fill="#141917"/>
<path d="M53.7863 -17.4182L52.2101 -17.4156C52.0101 -17.4153 51.8482 -17.2494 51.8485 -17.0451L51.8907 10.4249C51.891 10.6293 52.0535 10.7946 52.2535 10.7943L53.8297 10.7918C54.0297 10.7915 54.1917 10.6256 54.1913 10.4212L54.1491 -17.0487C54.1488 -17.2531 53.9864 -17.4185 53.7863 -17.4182Z" fill="#141917"/>
<path d="M46.6984 -17.4168L45.1222 -17.4143C44.9222 -17.4139 44.7603 -17.248 44.7606 -17.0437L44.8028 10.4263C44.8031 10.6306 44.9656 10.796 45.1656 10.7957L46.7418 10.7932C46.9418 10.7929 47.1038 10.6269 47.1035 10.4226L47.0612 -17.0474C47.0609 -17.2517 46.8985 -17.4171 46.6984 -17.4168Z" fill="#141917"/>
<path d="M39.6701 -10.5655L38.0939 -10.563C37.8939 -10.5627 37.7319 -10.3968 37.7323 -10.1924L37.7745 17.2776C37.7748 17.4819 37.9372 17.6473 38.1373 17.647L39.7135 17.6444C39.9135 17.6441 40.0754 17.4782 40.0751 17.2739L40.0329 -10.1961C40.0326 -10.4004 39.8701 -10.5658 39.6701 -10.5655Z" fill="#141917"/>
<path d="M32.5617 -17.3941L30.9855 -17.3916C30.7855 -17.3913 30.6235 -17.2253 30.6239 -17.021L30.6661 10.449C30.6664 10.6533 30.8288 10.8187 31.0289 10.8184L32.6051 10.8159C32.8051 10.8155 32.9671 10.6496 32.9667 10.4453L32.9245 -17.0247C32.9242 -17.229 32.7618 -17.3944 32.5617 -17.3941Z" fill="#141917"/>
<path d="M25.4738 -17.3827L23.8976 -17.3802C23.6976 -17.3799 23.5357 -17.214 23.536 -17.0096L23.5782 10.4603C23.5785 10.6647 23.741 10.8301 23.941 10.8298L25.5172 10.8272C25.7172 10.8269 25.8792 10.661 25.8789 10.4567L25.8366 -17.0133C25.8363 -17.2177 25.6739 -17.3831 25.4738 -17.3827Z" fill="#141917"/>
<path d="M18.3762 -17.3714L16.8 -17.3688C16.5999 -17.3685 16.438 -17.2026 16.4383 -16.9982L16.4806 10.4717C16.4809 10.6761 16.6433 10.8415 16.8434 10.8411L18.4195 10.8386C18.6196 10.8383 18.7815 10.6724 18.7812 10.468L18.739 -17.0019C18.7386 -17.2063 18.5762 -17.3717 18.3762 -17.3714Z" fill="#141917"/>
<path d="M11.2883 -17.36L9.71208 -17.3574C9.51203 -17.3571 9.35011 -17.1912 9.35042 -16.9869L9.39267 10.4831C9.39298 10.6875 9.55541 10.8528 9.75546 10.8525L11.3316 10.85C11.5317 10.8497 11.6936 10.6838 11.6933 10.4794L11.6511 -16.9905C11.6507 -17.1949 11.4883 -17.3603 11.2883 -17.36Z" fill="#141917"/>
<path d="M4.25996 -10.5187L2.66421 -10.5161C2.46956 -10.5158 2.31202 -10.3544 2.31232 -10.1556L2.35172 15.4644C2.35203 15.6632 2.51007 15.8241 2.70471 15.8238L4.30047 15.8213C4.49512 15.8209 4.65266 15.6595 4.65236 15.4607L4.61296 -10.1593C4.61265 -10.3581 4.45461 -10.519 4.25996 -10.5187Z" fill="#141917"/>
</g>
<mask id="mask1_381_927" style="mask-type:luminance" maskUnits="userSpaceOnUse" x="283" y="0" width="294" height="20">
<path d="M283.204 19.81L577 19.81V-1.90735e-06L283.204 -1.90735e-06V19.81Z" fill="white"/>
</mask>
<g mask="url(#mask1_381_927)">
<path d="M571.077 -10.8782L569.501 -10.8756C569.301 -10.8753 569.139 -10.7094 569.139 -10.5051L569.181 16.9649C569.182 17.1692 569.344 17.3346 569.544 17.3343L571.12 17.3318C571.32 17.3315 571.482 17.1656 571.482 16.9612L571.44 -10.5088C571.439 -10.7131 571.277 -10.8785 571.077 -10.8782Z" fill="#141917"/>
<path d="M563.969 -17.7068L562.392 -17.7042C562.192 -17.7039 562.031 -17.538 562.031 -17.3336L562.073 10.1363C562.073 10.3407 562.236 10.5061 562.436 10.5057L564.012 10.5032C564.212 10.5029 564.374 10.337 564.374 10.1326L564.332 -17.3373C564.331 -17.5417 564.169 -17.7071 563.969 -17.7068Z" fill="#141917"/>
<path d="M556.881 -17.7054L555.305 -17.7029C555.105 -17.7025 554.943 -17.5366 554.943 -17.3323L554.985 10.1377C554.986 10.342 555.148 10.5074 555.348 10.5071L556.924 10.5046C557.124 10.5043 557.286 10.3383 557.286 10.134L557.244 -17.336C557.243 -17.5403 557.081 -17.7057 556.881 -17.7054Z" fill="#141917"/>
<path d="M549.783 -17.684L548.207 -17.6815C548.007 -17.6811 547.845 -17.5152 547.845 -17.3109L547.888 10.1591C547.888 10.3634 548.05 10.5288 548.25 10.5285L549.826 10.526C550.027 10.5257 550.188 10.3597 550.188 10.1554L550.146 -17.3146C550.146 -17.5189 549.983 -17.6843 549.783 -17.684Z" fill="#141917"/>
<path d="M542.695 -17.6726L541.119 -17.6701C540.919 -17.6698 540.757 -17.5039 540.757 -17.2995L540.8 10.1705C540.8 10.3748 540.962 10.5402 541.162 10.5399L542.739 10.5373C542.939 10.537 543.101 10.3711 543.1 10.1668L543.058 -17.3032C543.058 -17.5075 542.895 -17.6729 542.695 -17.6726Z" fill="#141917"/>
<path d="M535.608 -10.8313L534.032 -10.8287C533.832 -10.8284 533.67 -10.6625 533.67 -10.4581L533.712 17.0118C533.713 17.2162 533.875 17.3816 534.075 17.3812L535.651 17.3787C535.852 17.3784 536.013 17.2125 536.013 17.0081L535.971 -10.4618C535.971 -10.6662 535.808 -10.8316 535.608 -10.8313Z" fill="#141917"/>
<path d="M528.51 -17.6699L526.934 -17.6673C526.733 -17.667 526.572 -17.5011 526.572 -17.2967L526.614 10.1732C526.614 10.3776 526.777 10.543 526.977 10.5426L528.553 10.5401C528.753 10.5398 528.915 10.3739 528.915 10.1695L528.872 -17.3004C528.872 -17.5048 528.71 -17.6702 528.51 -17.6699Z" fill="#141917"/>
<path d="M521.412 -17.6585L519.836 -17.6559C519.636 -17.6556 519.474 -17.4897 519.474 -17.2854L519.516 10.1846C519.517 10.3889 519.679 10.5543 519.879 10.554L521.455 10.5515C521.655 10.5512 521.817 10.3853 521.817 10.1809L521.775 -17.2891C521.774 -17.4934 521.612 -17.6588 521.412 -17.6585Z" fill="#141917"/>
<path d="M514.324 -17.6471L512.748 -17.6446C512.548 -17.6443 512.386 -17.4783 512.386 -17.274L512.429 10.196C512.429 10.4003 512.591 10.5657 512.791 10.5654L514.368 10.5629C514.568 10.5625 514.729 10.3966 514.729 10.1923L514.687 -17.2777C514.687 -17.482 514.524 -17.6474 514.324 -17.6471Z" fill="#141917"/>
<path d="M507.226 -17.6357L505.65 -17.6332C505.45 -17.6329 505.288 -17.4669 505.288 -17.2626L505.331 10.2074C505.331 10.4117 505.493 10.5771 505.693 10.5768L507.27 10.5743C507.47 10.5739 507.632 10.408 507.631 10.2037L507.589 -17.2663C507.589 -17.4706 507.426 -17.636 507.226 -17.6357Z" fill="#141917"/>
<path d="M500.149 -10.7944L498.573 -10.7918C498.373 -10.7915 498.211 -10.6256 498.211 -10.4213L498.253 17.0487C498.254 17.2531 498.416 17.4184 498.616 17.4181L500.192 17.4156C500.392 17.4153 500.554 17.2494 500.554 17.045L500.512 -10.425C500.511 -10.6293 500.349 -10.7947 500.149 -10.7944Z" fill="#141917"/>
<path d="M493.041 -17.623L491.465 -17.6204C491.264 -17.6201 491.103 -17.4542 491.103 -17.2498L491.145 10.2201C491.145 10.4245 491.308 10.5899 491.508 10.5895L493.084 10.587C493.284 10.5867 493.446 10.4208 493.446 10.2164L493.404 -17.2535C493.403 -17.4579 493.241 -17.6233 493.041 -17.623Z" fill="#141917"/>
<path d="M485.953 -17.6116L484.377 -17.6091C484.177 -17.6087 484.015 -17.4428 484.015 -17.2385L484.057 10.2315C484.058 10.4358 484.22 10.6012 484.42 10.6009L485.996 10.5984C486.196 10.5981 486.358 10.4321 486.358 10.2278L486.316 -17.2422C486.315 -17.4465 486.153 -17.6119 485.953 -17.6116Z" fill="#141917"/>
<path d="M478.855 -17.6002L477.279 -17.5977C477.079 -17.5973 476.917 -17.4314 476.917 -17.2271L476.96 10.2429C476.96 10.4472 477.122 10.6126 477.322 10.6123L478.899 10.6098C479.099 10.6095 479.261 10.4435 479.26 10.2392L479.218 -17.2308C479.218 -17.4351 479.055 -17.6005 478.855 -17.6002Z" fill="#141917"/>
<path d="M471.758 -17.5888L470.181 -17.5863C469.981 -17.586 469.819 -17.42 469.82 -17.2157L469.862 10.2543C469.862 10.4586 470.025 10.624 470.225 10.6237L471.801 10.6212C472.001 10.6208 472.163 10.4549 472.163 10.2506L472.12 -17.2194C472.12 -17.4237 471.958 -17.5891 471.758 -17.5888Z" fill="#141917"/>
<path d="M464.68 -10.7575L463.104 -10.7549C462.904 -10.7546 462.742 -10.5887 462.742 -10.3843L462.785 17.0856C462.785 17.29 462.947 17.4554 463.147 17.455L464.723 17.4525C464.924 17.4522 465.085 17.2863 465.085 17.0819L465.043 -10.388C465.043 -10.5924 464.88 -10.7578 464.68 -10.7575Z" fill="#141917"/>
<path d="M457.572 -17.576L455.996 -17.5735C455.796 -17.5732 455.634 -17.4073 455.634 -17.2029L455.676 10.267C455.677 10.4714 455.839 10.6368 456.039 10.6364L457.615 10.6339C457.815 10.6336 457.977 10.4677 457.977 10.2633L457.935 -17.2066C457.934 -17.411 457.772 -17.5764 457.572 -17.576Z" fill="#141917"/>
<path d="M450.484 -17.5747L448.908 -17.5721C448.708 -17.5718 448.546 -17.4059 448.546 -17.2016L448.588 10.2684C448.589 10.4727 448.751 10.6381 448.951 10.6378L450.527 10.6353C450.727 10.635 450.889 10.4691 450.889 10.2647L450.847 -17.2053C450.847 -17.4096 450.684 -17.575 450.484 -17.5747Z" fill="#141917"/>
<path d="M443.386 -17.5633L441.81 -17.5607C441.61 -17.5604 441.448 -17.3945 441.448 -17.1902L441.491 10.2798C441.491 10.4841 441.653 10.6495 441.853 10.6492L443.43 10.6467C443.63 10.6464 443.792 10.4805 443.791 10.2761L443.749 -17.1939C443.749 -17.3982 443.586 -17.5636 443.386 -17.5633Z" fill="#141917"/>
<path d="M436.298 -17.5519L434.722 -17.5494C434.522 -17.5491 434.36 -17.3831 434.36 -17.1788L434.403 10.2912C434.403 10.4955 434.565 10.6609 434.765 10.6606L436.342 10.6581C436.542 10.6577 436.704 10.4918 436.703 10.2875L436.661 -17.1825C436.661 -17.3868 436.498 -17.5522 436.298 -17.5519Z" fill="#141917"/>
<path d="M429.211 -10.7105L427.635 -10.708C427.435 -10.7077 427.273 -10.5418 427.273 -10.3374L427.316 17.1325C427.316 17.3369 427.478 17.5023 427.678 17.502L429.255 17.4994C429.455 17.4991 429.616 17.3332 429.616 17.1288L429.574 -10.3411C429.574 -10.5455 429.411 -10.7109 429.211 -10.7105Z" fill="#141917"/>
<path d="M422.113 -17.5291L420.537 -17.5266C420.336 -17.5263 420.175 -17.3604 420.175 -17.156L420.217 10.3139C420.217 10.5183 420.38 10.6837 420.58 10.6834L422.156 10.6808C422.356 10.6805 422.518 10.5146 422.518 10.3102L422.476 -17.1597C422.475 -17.3641 422.313 -17.5295 422.113 -17.5291Z" fill="#141917"/>
<path d="M415.015 -17.5278L413.439 -17.5252C413.239 -17.5249 413.077 -17.359 413.077 -17.1546L413.119 10.3153C413.12 10.5197 413.282 10.6851 413.482 10.6847L415.058 10.6822C415.259 10.6819 415.42 10.516 415.42 10.3116L415.378 -17.1583C415.378 -17.3627 415.215 -17.5281 415.015 -17.5278Z" fill="#141917"/>
<path d="M407.927 -17.5164L406.351 -17.5139C406.151 -17.5135 405.989 -17.3476 405.989 -17.1433L406.032 10.3267C406.032 10.531 406.194 10.6964 406.394 10.6961L407.971 10.6936C408.171 10.6933 408.333 10.5273 408.332 10.323L408.29 -17.147C408.29 -17.3513 408.127 -17.5167 407.927 -17.5164Z" fill="#141917"/>
<path d="M400.83 -17.515L399.253 -17.5125C399.053 -17.5121 398.891 -17.3462 398.892 -17.1419L398.934 10.3281C398.934 10.5324 399.097 10.6978 399.297 10.6975L400.873 10.695C401.073 10.6946 401.235 10.5287 401.235 10.3244L401.192 -17.1456C401.192 -17.3499 401.03 -17.5153 400.83 -17.515Z" fill="#141917"/>
<path d="M393.752 -10.6736L392.176 -10.6711C391.976 -10.6708 391.814 -10.5049 391.814 -10.3005L391.857 17.1694C391.857 17.3738 392.019 17.5392 392.219 17.5389L393.796 17.5363C393.996 17.536 394.157 17.3701 394.157 17.1657L394.115 -10.3042C394.115 -10.5086 393.952 -10.674 393.752 -10.6736Z" fill="#141917"/>
<path d="M386.644 -17.4922L385.068 -17.4897C384.868 -17.4894 384.706 -17.3235 384.706 -17.1191L384.748 10.3508C384.749 10.5552 384.911 10.7206 385.111 10.7203L386.687 10.7177C386.887 10.7174 387.049 10.5515 387.049 10.3472L387.007 -17.1228C387.006 -17.3272 386.844 -17.4926 386.644 -17.4922Z" fill="#141917"/>
<path d="M379.546 -17.4808L377.97 -17.4783C377.77 -17.478 377.608 -17.3121 377.608 -17.1077L377.65 10.3622C377.651 10.5666 377.813 10.732 378.013 10.7316L379.589 10.7291C379.79 10.7288 379.951 10.5629 379.951 10.3585L379.909 -17.1114C379.909 -17.3158 379.746 -17.4812 379.546 -17.4808Z" fill="#141917"/>
<path d="M372.458 -17.4795L370.882 -17.4769C370.682 -17.4766 370.52 -17.3107 370.52 -17.1064L370.563 10.3636C370.563 10.5679 370.725 10.7333 370.925 10.733L372.502 10.7305C372.702 10.7302 372.864 10.5643 372.863 10.3599L372.821 -17.1101C372.821 -17.3144 372.658 -17.4798 372.458 -17.4795Z" fill="#141917"/>
<path d="M365.361 -17.4681L363.784 -17.4656C363.584 -17.4652 363.422 -17.2993 363.423 -17.095L363.465 10.375C363.465 10.5793 363.628 10.7447 363.828 10.7444L365.404 10.7419C365.604 10.7416 365.766 10.5756 365.766 10.3713L365.723 -17.0987C365.723 -17.303 365.561 -17.4684 365.361 -17.4681Z" fill="#141917"/>
<path d="M358.283 -10.6267L356.707 -10.6242C356.507 -10.6239 356.345 -10.458 356.345 -10.2536L356.388 17.2163C356.388 17.4207 356.55 17.5861 356.75 17.5858L358.326 17.5832C358.527 17.5829 358.688 17.417 358.688 17.2126L358.646 -10.2573C358.646 -10.4617 358.483 -10.6271 358.283 -10.6267Z" fill="#141917"/>
<path d="M351.175 -17.4453L349.599 -17.4428C349.399 -17.4425 349.237 -17.2766 349.237 -17.0722L349.279 10.3978C349.28 10.6021 349.442 10.7675 349.642 10.7672L351.218 10.7646C351.418 10.7643 351.58 10.5984 351.58 10.3941L351.538 -17.0759C351.537 -17.2803 351.375 -17.4456 351.175 -17.4453Z" fill="#141917"/>
<path d="M344.087 -17.434L342.511 -17.4314C342.311 -17.4311 342.149 -17.2652 342.149 -17.0608L342.191 10.4091C342.192 10.6135 342.354 10.7789 342.554 10.7785L344.13 10.776C344.331 10.7757 344.492 10.6098 344.492 10.4054L344.45 -17.0645C344.45 -17.2689 344.287 -17.4343 344.087 -17.434Z" fill="#141917"/>
<path d="M336.989 -17.4226L335.413 -17.42C335.213 -17.4197 335.051 -17.2538 335.052 -17.0494L335.094 10.4205C335.094 10.6249 335.257 10.7903 335.457 10.7899L337.033 10.7874C337.233 10.7871 337.395 10.6212 337.394 10.4168L337.352 -17.0531C337.352 -17.2575 337.189 -17.4229 336.989 -17.4226Z" fill="#141917"/>
<path d="M329.902 -17.4312L328.325 -17.4287C328.125 -17.4283 327.963 -17.2624 327.964 -17.0581L328.006 10.4119C328.006 10.6162 328.169 10.7816 328.369 10.7813L329.945 10.7788C330.145 10.7784 330.307 10.6125 330.307 10.4082L330.264 -17.0618C330.264 -17.2661 330.102 -17.4315 329.902 -17.4312Z" fill="#141917"/>
<path d="M322.873 -10.5799L321.297 -10.5774C321.097 -10.5771 320.935 -10.4112 320.935 -10.2068L320.977 17.2632C320.978 17.4675 321.14 17.6329 321.34 17.6326L322.916 17.63C323.116 17.6297 323.278 17.4638 323.278 17.2595L323.236 -10.2105C323.235 -10.4148 323.073 -10.5802 322.873 -10.5799Z" fill="#141917"/>
<path d="M315.765 -17.4085L314.189 -17.406C313.989 -17.4057 313.827 -17.2397 313.827 -17.0354L313.869 10.4346C313.87 10.6389 314.032 10.8043 314.232 10.804L315.808 10.8015C316.008 10.8011 316.17 10.6352 316.17 10.4309L316.128 -17.0391C316.127 -17.2434 315.965 -17.4088 315.765 -17.4085Z" fill="#141917"/>
<path d="M308.677 -17.3971L307.101 -17.3946C306.901 -17.3943 306.739 -17.2284 306.739 -17.024L306.781 10.4459C306.782 10.6503 306.944 10.8157 307.144 10.8154L308.72 10.8128C308.92 10.8125 309.082 10.6466 309.082 10.4422L309.04 -17.0277C309.039 -17.2321 308.877 -17.3975 308.677 -17.3971Z" fill="#141917"/>
<path d="M301.579 -17.3858L300.003 -17.3832C299.803 -17.3829 299.641 -17.217 299.641 -17.0126L299.684 10.4573C299.684 10.6617 299.846 10.8271 300.046 10.8267L301.623 10.8242C301.823 10.8239 301.985 10.658 301.984 10.4536L301.942 -17.0163C301.942 -17.2207 301.779 -17.3861 301.579 -17.3858Z" fill="#141917"/>
<path d="M294.482 -17.3744L292.905 -17.3718C292.705 -17.3715 292.543 -17.2056 292.544 -17.0012L292.586 10.4687C292.586 10.6731 292.749 10.8385 292.949 10.8381L294.525 10.8356C294.725 10.8353 294.887 10.6694 294.887 10.465L294.844 -17.0049C294.844 -17.2093 294.682 -17.3747 294.482 -17.3744Z" fill="#141917"/>
<path d="M287.463 -10.5331L285.867 -10.5305C285.672 -10.5302 285.515 -10.3688 285.515 -10.17L285.555 15.45C285.555 15.6488 285.713 15.8097 285.908 15.8094L287.503 15.8069C287.698 15.8065 287.856 15.6451 287.855 15.4463L287.816 -10.1737C287.816 -10.3725 287.657 -10.5334 287.463 -10.5331Z" fill="#141917"/>
</g>
</svg>
